<?xml version="1.0" standalone="no"?>
<!DOCTYPE svg PUBLIC "-//W3C//DTD SVG 20010904//EN"
 "http://www.w3.org/TR/2001/REC-SVG-20010904/DTD/svg10.dtd">
<svg version="1.0" xmlns="http://www.w3.org/2000/svg"
 width="1600.000000pt" height="1600.000000pt" viewBox="0 0 1600.000000 1600.000000"
 preserveAspectRatio="xMidYMid meet">
<metadata>
Created by potrace 1.14, written by Peter Selinger 2001-2017
</metadata>
<g transform="translate(0.000000,1600.000000) scale(0.100000,-0.100000)"
fill="#000000" stroke="none">
<path d="M14534 10783 c-7 -7 -15 -13 -18 -13 -3 0 -16 -10 -30 -22 -40 -37
-55 -48 -66 -48 -5 0 -10 -4 -10 -9 0 -5 -8 -12 -19 -16 -10 -3 -30 -16 -44
-28 -29 -26 -55 -44 -82 -56 -11 -5 -27 -18 -35 -30 -8 -12 -19 -21 -24 -21
-5 0 -16 -8 -25 -18 -23 -25 -88 -72 -100 -72 -5 0 -23 -14 -40 -31 -18 -17
-36 -27 -42 -23 -7 4 -9 3 -6 -3 6 -10 -29 -49 -42 -47 -13 3 -31 -9 -25 -17
5 -8 -3 -11 -22 -8 -4 0 -10 -4 -13 -10 -12 -19 -74 -61 -82 -55 -5 3 -9 -2
-9 -10 0 -8 -9 -18 -20 -21 -11 -3 -20 -9 -20 -13 0 -4 -18 -18 -40 -32 -22
-14 -40 -28 -40 -32 0 -5 -7 -8 -15 -8 -8 0 -15 -4 -15 -9 0 -5 -20 -19 -45
-31 -25 -12 -43 -25 -40 -29 2 -5 -8 -14 -23 -22 -15 -8 -35 -21 -45 -30 -10
-9 -33 -25 -52 -35 -19 -10 -35 -22 -35 -26 0 -4 -15 -15 -32 -24 -18 -9 -39
-25 -46 -35 -7 -11 -20 -19 -28 -19 -8 0 -14 -4 -14 -8 0 -5 -8 -13 -19 -18
-19 -9 -82 -57 -111 -85 -9 -8 -22 -13 -30 -11 -7 3 -10 0 -6 -7 4 -6 2 -11
-4 -11 -6 0 -36 -20 -66 -44 -30 -25 -63 -48 -74 -51 -11 -4 -18 -11 -15 -16
5 -8 -1 -11 -21 -8 -3 0 -15 -10 -27 -24 -21 -23 -112 -87 -123 -87 -3 0 -24
-16 -47 -35 -22 -19 -47 -35 -54 -35 -7 0 -13 -4 -13 -8 0 -5 -12 -15 -27 -23
-15 -8 -35 -22 -45 -31 -10 -10 -25 -18 -34 -18 -8 0 -12 -4 -9 -10 3 -5 0
-10 -9 -10 -8 0 -16 -5 -18 -11 -2 -6 -15 -12 -30 -12 -14 -1 -25 -4 -23 -7 2
-3 1 -10 -3 -15 -12 -17 -91 -75 -101 -75 -6 0 -11 -3 -11 -8 0 -4 -17 -16
-37 -27 -21 -11 -42 -26 -48 -33 -24 -30 -85 -17 -85 18 0 6 -5 8 -11 4 -6 -3
-15 -1 -19 5 -4 7 -13 13 -21 14 -8 2 -19 6 -25 10 -6 3 -25 8 -43 9 -33 2
-91 47 -91 70 0 16 -110 119 -120 113 -5 -3 -10 0 -12 7 -5 13 -110 14 -130 1
-17 -11 -121 -11 -129 0 -3 5 -12 10 -20 11 -21 4 -52 16 -74 29 -11 6 -70 12
-134 12 -94 1 -116 4 -126 18 -7 9 -17 17 -23 17 -6 0 -15 6 -19 13 -5 8 -34
12 -83 12 -49 0 -78 -4 -83 -12 -4 -7 -15 -13 -22 -13 -8 0 -15 -4 -15 -8 0
-12 -71 -46 -100 -47 -14 -1 -41 -6 -60 -10 -19 -5 -39 -10 -45 -11 -5 -1 -44
-12 -85 -24 -41 -12 -84 -24 -95 -27 -11 -3 -25 -10 -31 -15 -7 -5 -23 -11
-35 -13 -29 -6 -111 -46 -121 -60 -5 -7 -8 -7 -8 0 0 6 -5 3 -10 -5 -5 -8 -13
-15 -17 -16 -14 -1 -73 -39 -73 -46 0 -5 -6 -8 -13 -8 -7 0 -27 -13 -45 -30
-18 -16 -37 -30 -42 -30 -4 0 -10 -7 -14 -15 -3 -8 -9 -14 -14 -13 -8 3 -32
-17 -128 -104 -28 -24 -44 -46 -44 -57 0 -6 -9 -15 -20 -21 -11 -6 -20 -15
-20 -20 0 -5 -14 -24 -30 -42 -17 -18 -33 -43 -36 -55 -4 -13 -9 -21 -13 -18
-4 2 -8 -1 -8 -8 0 -7 -10 -34 -23 -62 -13 -27 -25 -59 -27 -70 -2 -11 -8 -31
-13 -45 -19 -47 -24 -105 -24 -265 0 -147 4 -209 20 -320 7 -42 7 -45 23 -109
5 -22 8 -43 5 -47 -2 -4 1 -9 7 -11 6 -2 12 -15 12 -30 1 -14 5 -24 10 -21 4
2 7 -1 7 -7 0 -6 7 -27 17 -48 9 -20 15 -40 15 -44 -1 -5 2 -8 8 -8 5 0 17
-17 26 -37 10 -21 24 -42 31 -46 7 -5 11 -12 8 -17 -3 -5 3 -15 15 -22 11 -7
20 -18 20 -24 0 -13 188 -204 201 -204 5 0 9 -4 9 -10 0 -5 6 -10 13 -10 7 0
23 -10 37 -23 23 -22 42 -32 65 -36 6 -2 14 -9 18 -17 4 -8 15 -14 22 -14 8 0
15 -4 15 -10 0 -5 6 -10 14 -10 7 0 19 -7 26 -15 7 -8 21 -15 31 -15 10 0 22
-6 26 -12 4 -7 14 -13 21 -14 37 -3 43 -5 38 -12 -3 -5 5 -8 17 -7 12 1 30 -5
41 -14 10 -9 19 -15 20 -13 0 2 14 -1 29 -7 16 -6 32 -9 37 -6 5 3 10 0 12 -5
2 -6 19 -12 38 -13 19 -1 37 -5 40 -9 3 -4 30 -10 60 -13 30 -3 63 -8 74 -11
83 -26 526 -24 568 2 5 4 30 8 54 10 25 2 50 7 57 11 6 4 23 8 35 9 13 0 27 5
30 10 4 5 16 9 27 8 11 0 30 5 43 13 12 7 22 11 22 8 0 -3 10 0 23 7 12 6 28
13 36 14 21 4 105 47 113 59 4 5 8 7 8 2 0 -10 58 20 97 52 18 14 36 25 39 23
3 -2 16 8 29 22 12 13 25 23 28 20 2 -2 10 2 17 11 7 8 18 15 25 15 7 0 15 10
18 22 4 12 9 19 13 15 7 -7 54 42 54 57 0 5 3 7 6 4 9 -10 77 64 115 124 20
32 39 54 43 50 4 -4 6 -2 5 3 -4 13 50 105 75 128 10 9 15 17 11 17 -4 0 -1 8
7 18 21 23 47 75 65 131 14 43 18 103 26 431 1 41 -2 102 -6 135 -5 33 -10 67
-11 75 -1 9 -5 20 -8 25 -3 6 -9 25 -13 43 -6 27 -2 37 26 67 19 19 39 35 46
35 7 0 17 9 23 20 6 11 15 18 19 15 5 -3 20 6 32 20 13 13 30 25 38 25 7 0 29
16 48 35 19 19 42 35 50 35 8 0 11 5 8 10 -3 6 1 10 10 10 9 0 14 4 11 9 -4 5
7 12 24 16 16 4 30 11 30 16 0 5 6 9 13 9 8 0 20 11 27 25 7 14 19 25 25 25 6
0 20 8 31 18 10 9 31 23 47 31 15 8 27 18 27 23 0 4 7 8 15 8 8 0 15 5 15 10
0 6 5 10 10 10 6 0 20 9 32 20 12 11 27 20 34 20 6 0 15 7 18 16 3 8 10 13 15
10 5 -3 12 1 15 10 4 9 9 14 13 10 3 -3 12 3 20 14 8 11 19 20 24 20 5 0 20 9
32 20 12 12 32 23 44 26 13 4 23 12 23 20 0 8 6 14 13 14 7 0 22 8 33 18 10 9
31 23 47 31 15 8 27 18 27 23 0 4 7 8 15 8 8 0 15 4 15 9 0 5 10 13 23 17 12
4 40 22 61 40 22 19 45 34 51 34 6 0 17 9 25 20 8 11 18 20 23 20 9 0 117 77
165 117 15 13 33 23 40 23 7 0 11 4 8 8 -2 4 8 13 23 20 15 7 36 20 47 30 10
9 31 23 47 29 15 7 27 17 27 23 0 5 7 10 15 10 8 0 15 5 15 10 0 6 7 10 16 10
8 0 12 5 9 10 -3 6 3 10 15 10 12 0 18 5 15 10 -3 6 1 10 9 10 9 0 16 5 16 10
0 6 7 10 15 10 8 0 15 5 15 10 0 6 6 10 13 10 7 0 19 9 27 20 8 11 20 20 27
20 7 0 13 3 13 8 0 4 18 16 40 26 22 11 40 25 40 33 0 7 6 13 13 13 7 0 23 9
35 20 12 11 26 20 32 20 5 0 10 5 10 10 0 6 6 10 14 10 8 0 21 8 28 18 7 9 25
23 41 31 15 8 27 18 27 23 0 4 7 8 15 8 8 0 15 3 15 8 0 9 78 58 87 54 3 -2
10 3 14 10 5 8 27 28 51 44 24 16 52 37 62 47 11 9 25 17 32 17 7 0 14 4 16 8
2 5 24 23 51 41 26 17 47 36 47 41 0 6 6 10 13 10 12 0 46 54 50 81 2 8 6 19
9 25 12 18 18 66 19 131 0 63 -6 87 -20 79 -4 -3 -31 1 -59 8 -28 8 -53 12
-56 9 -2 -2 -13 0 -23 5 -28 15 -95 23 -252 30 -110 5 -148 4 -157 -5z"/>
<path d="M4720 9403 c-36 -2 -69 -8 -74 -14 -6 -5 -25 -9 -42 -9 -18 0 -36 -4
-39 -10 -3 -5 -17 -10 -31 -10 -13 0 -24 -4 -24 -10 0 -5 -9 -10 -20 -10 -19
0 -70 -19 -80 -30 -3 -3 -21 -17 -40 -30 -19 -14 -44 -32 -54 -42 -11 -10 -24
-18 -30 -18 -5 0 -6 -3 -3 -6 3 -4 -8 -20 -24 -35 -17 -16 -27 -29 -23 -29 5
0 4 -4 -2 -8 -13 -8 -64 -105 -70 -133 -2 -11 -7 -29 -10 -41 -14 -51 -16
-217 -3 -274 7 -32 12 -62 11 -66 -1 -5 3 -8 8 -8 6 0 10 -9 10 -20 0 -11 5
-20 10 -20 6 0 10 -6 10 -13 0 -7 9 -23 20 -35 12 -12 18 -22 14 -22 -3 0 16
-20 42 -45 27 -25 55 -45 62 -45 7 0 10 -4 7 -10 -3 -5 1 -10 9 -10 9 0 16 -4
16 -10 0 -5 6 -10 13 -10 18 0 67 -24 67 -32 0 -5 9 -8 20 -8 10 0 29 -4 42
-9 21 -9 41 -15 60 -20 4 -1 22 -6 39 -11 18 -5 50 -12 73 -16 22 -3 44 -7 47
-10 4 -2 60 -6 125 -10 111 -5 174 -18 174 -36 0 -5 6 -8 14 -8 8 0 17 -13 21
-30 7 -31 -1 -70 -14 -70 -4 0 -16 -8 -27 -18 -24 -22 -140 -47 -181 -38 -15
4 -41 9 -58 11 -73 13 -134 56 -150 105 -12 38 -32 63 -40 51 -4 -7 -86 -11
-245 -11 l-240 0 6 -47 c12 -116 20 -158 30 -181 4 -9 8 -19 9 -22 20 -50 31
-70 37 -70 4 0 8 -7 8 -15 0 -14 16 -35 92 -116 14 -16 30 -29 35 -29 5 0 15
-9 23 -20 8 -11 22 -20 32 -20 10 0 18 -3 18 -7 0 -9 49 -33 67 -33 7 0 13 -4
13 -9 0 -5 12 -11 28 -14 15 -2 52 -11 82 -20 92 -25 301 -40 347 -25 12 4 49
8 83 9 33 1 63 6 66 11 3 4 20 8 39 8 19 0 37 5 40 10 3 6 17 10 30 10 13 0
26 4 29 9 9 14 55 19 60 7 2 -6 5 -4 5 4 1 8 19 26 41 40 22 14 40 28 40 32 0
5 7 8 15 8 8 0 15 5 15 10 0 6 7 10 16 10 8 0 12 5 9 10 -3 6 -1 10 5 10 6 0
18 7 26 15 9 8 12 15 8 15 -4 0 3 8 14 19 12 10 19 21 15 25 -3 3 -2 6 4 6 12
0 42 68 72 162 16 49 13 261 -4 309 -8 21 -11 40 -8 43 4 3 1 6 -5 6 -7 0 -12
7 -12 15 0 21 -19 54 -60 104 -11 13 -17 28 -14 32 3 5 -2 9 -10 9 -9 0 -16 5
-16 10 0 6 -6 10 -13 10 -7 0 -19 9 -27 20 -8 11 -20 20 -27 20 -7 0 -13 5
-13 10 0 6 -7 10 -15 10 -8 0 -15 3 -15 8 0 8 -49 32 -67 32 -7 0 -13 5 -13
10 0 6 -9 10 -19 10 -11 0 -23 5 -26 10 -3 6 -15 10 -26 10 -10 0 -27 4 -37 9
-28 14 -110 31 -153 31 -22 0 -38 3 -36 8 3 4 -41 8 -96 9 -116 1 -170 16
-187 48 -17 32 -16 76 4 90 8 7 13 15 9 18 -3 4 3 7 13 7 11 0 26 6 33 13 8 8
47 12 126 11 108 -1 116 -2 149 -28 20 -15 36 -34 36 -42 0 -7 5 -14 11 -14 7
0 9 -10 6 -25 -2 -14 -2 -23 1 -21 2 3 14 0 26 -6 11 -7 26 -11 31 -8 6 2 98
4 205 5 107 1 203 3 213 4 16 1 18 8 11 74 -4 39 -13 88 -20 109 -7 20 -10 39
-7 42 4 3 1 6 -5 6 -7 0 -12 8 -12 18 0 9 -9 28 -20 42 -11 14 -20 31 -20 38
0 6 -4 12 -10 12 -5 0 -10 5 -10 11 0 16 -108 116 -141 131 -16 7 -29 16 -29
20 0 5 -9 8 -20 8 -11 0 -20 5 -20 10 0 6 -11 10 -25 10 -14 0 -25 4 -25 8 0
4 -21 13 -47 20 -27 7 -66 18 -87 23 -44 12 -227 19 -326 12z"/>
<path d="M6460 9390 c-8 -6 -34 -10 -57 -10 -23 0 -45 -4 -48 -10 -3 -5 -19
-10 -36 -10 -16 0 -29 -4 -29 -10 0 -5 -8 -10 -17 -10 -24 0 -83 -23 -83 -32
0 -4 -9 -8 -20 -8 -11 0 -20 -4 -20 -10 0 -5 -7 -10 -15 -10 -8 0 -15 -4 -15
-10 0 -5 -7 -10 -15 -10 -8 0 -15 -4 -15 -10 0 -5 -5 -10 -11 -10 -6 0 -23
-13 -37 -28 -15 -16 -38 -34 -50 -41 -13 -7 -21 -15 -18 -18 2 -3 -5 -16 -17
-29 -33 -35 -41 -46 -63 -84 -10 -19 -21 -37 -24 -40 -11 -11 -69 -157 -79
-200 -26 -112 -32 -163 -30 -271 2 -181 37 -342 100 -465 16 -32 29 -62 29
-67 0 -4 6 -14 13 -21 6 -7 23 -27 37 -45 14 -18 31 -39 38 -47 7 -8 10 -14 5
-14 -4 0 4 -8 20 -18 15 -10 24 -22 20 -25 -3 -4 1 -7 10 -7 9 0 19 -11 23
-24 3 -14 11 -23 18 -20 6 2 21 -4 31 -14 11 -10 35 -25 53 -32 17 -8 32 -18
32 -22 0 -4 18 -13 40 -19 22 -7 40 -16 40 -21 0 -4 8 -8 18 -8 9 0 37 -8 62
-16 38 -14 152 -32 225 -36 44 -3 185 15 185 23 0 5 13 9 28 9 15 0 32 4 37 8
6 5 29 14 53 21 23 6 40 16 37 21 -4 6 1 10 9 10 9 0 16 5 16 10 0 6 6 10 13
10 7 0 19 9 27 20 8 11 20 20 28 20 7 0 11 4 8 9 -3 5 1 11 9 15 12 4 15 -7
15 -69 0 -71 1 -75 25 -81 13 -3 126 -7 250 -8 179 -1 226 2 230 12 3 8 5 396
5 863 0 617 -3 853 -11 862 -9 9 -67 11 -218 10 -113 -1 -223 -4 -243 -7 l-37
-6 -3 -76 -3 -76 -35 31 c-19 17 -51 44 -70 61 -19 17 -47 33 -63 37 -15 3
-30 10 -33 14 -3 5 -16 9 -30 9 -13 0 -24 5 -24 10 0 6 -13 10 -29 10 -17 0
-32 4 -35 9 -7 11 -238 12 -256 1z m285 -480 c3 -5 14 -10 24 -10 21 0 71 -22
71 -32 0 -5 7 -8 15 -8 23 0 101 -88 134 -150 38 -71 45 -106 45 -210 0 -88
-27 -181 -60 -215 -9 -8 -12 -15 -9 -15 4 0 -9 -16 -29 -35 -20 -19 -36 -39
-36 -44 0 -5 -11 -12 -24 -15 -14 -3 -31 -12 -38 -19 -23 -21 -57 -37 -78 -37
-11 0 -40 -5 -65 -12 -35 -10 -58 -9 -107 1 -79 16 -169 59 -194 91 -7 8 -21
26 -33 39 -11 13 -26 39 -33 57 -7 19 -15 34 -18 34 -12 0 -32 102 -34 173 -2
71 19 189 36 195 4 2 6 7 3 12 -3 5 2 16 11 24 8 9 13 16 10 16 -3 0 4 12 17
26 45 54 101 104 116 104 5 0 21 7 37 14 15 8 31 13 36 10 4 -3 8 0 8 5 0 14
187 15 195 1z"/>
<path d="M8515 9380 c-77 -9 -120 -17 -150 -30 -11 -5 -41 -14 -67 -21 -27 -8
-48 -17 -48 -21 0 -4 -9 -8 -20 -8 -11 0 -20 -4 -20 -10 0 -5 -7 -10 -15 -10
-8 0 -15 -4 -15 -8 0 -4 -14 -13 -31 -19 -17 -7 -28 -17 -24 -22 3 -6 0 -11
-7 -11 -7 0 -26 -13 -41 -29 -15 -17 -36 -33 -46 -36 -11 -3 -22 -17 -25 -30
-4 -14 -10 -25 -15 -25 -5 0 -14 -13 -21 -30 -7 -16 -16 -30 -20 -30 -5 0 -19
-22 -31 -50 -12 -27 -25 -50 -29 -50 -3 0 -7 -12 -8 -27 -1 -15 -5 -29 -10
-32 -10 -8 -29 -67 -42 -136 -6 -33 -15 -77 -20 -99 -10 -47 -5 -271 8 -346
18 -101 40 -170 78 -241 7 -14 11 -29 7 -33 -3 -3 -1 -6 5 -6 7 0 12 -6 12
-14 0 -8 7 -17 16 -20 8 -3 12 -10 9 -16 -3 -5 -3 -10 2 -10 4 0 19 -17 33
-38 26 -39 69 -82 83 -82 5 0 5 -4 2 -10 -3 -5 1 -10 9 -10 9 0 16 -4 16 -10
0 -5 5 -10 10 -10 6 0 20 -9 32 -20 12 -11 28 -20 35 -20 7 0 13 -4 13 -10 0
-5 9 -10 20 -10 11 0 20 -4 20 -9 0 -5 8 -11 18 -14 9 -4 35 -13 57 -21 22 -9
48 -16 58 -16 9 0 17 -4 17 -8 0 -4 16 -9 35 -10 20 -2 46 -7 60 -12 27 -10
287 -6 348 5 20 4 40 11 43 16 3 5 13 9 24 9 23 0 100 40 121 63 9 9 20 17 25
17 5 0 16 9 24 20 24 34 31 23 29 -47 -2 -59 -6 -82 -27 -143 -3 -8 -6 -17 -6
-20 -9 -46 -109 -170 -137 -170 -6 0 -7 -4 -4 -10 3 -6 -4 -10 -17 -10 -13 0
-28 -4 -33 -8 -37 -32 -233 -44 -283 -18 -15 8 -44 17 -65 21 -20 4 -34 11
-31 16 3 5 0 9 -7 9 -20 0 -69 59 -76 90 l-5 30 -268 0 -268 0 5 -52 c7 -71
27 -146 52 -195 11 -22 17 -43 14 -47 -4 -3 -1 -6 5 -6 6 0 14 -10 18 -22 9
-28 180 -198 199 -198 8 0 15 -4 15 -10 0 -5 7 -10 15 -10 8 0 15 -4 15 -10 0
-5 6 -10 13 -10 18 0 67 -24 67 -32 0 -5 11 -8 25 -8 14 0 25 -4 25 -10 0 -5
9 -10 20 -10 11 0 23 -6 26 -14 3 -7 17 -13 32 -14 15 0 52 -6 82 -12 80 -17
325 -24 388 -11 144 30 163 35 168 43 3 4 16 8 30 8 13 0 24 5 24 10 0 6 7 10
15 10 20 0 133 65 155 90 3 3 17 11 32 19 15 8 25 18 22 23 -3 4 0 8 6 8 6 0
22 11 36 25 14 14 23 25 20 25 -3 0 5 11 17 24 50 54 67 80 98 146 6 14 17 36
24 50 11 21 31 86 36 112 0 4 8 31 17 60 13 46 16 169 21 952 5 712 3 900 -6
903 -7 3 -11 8 -9 12 2 3 -108 5 -245 3 l-249 -3 0 -74 c0 -41 -4 -75 -8 -75
-5 0 -18 10 -29 23 -28 31 -61 57 -73 57 -6 0 -10 5 -10 10 0 6 -9 10 -19 10
-11 0 -23 5 -26 10 -3 6 -15 10 -26 10 -10 0 -19 5 -19 10 0 6 -15 10 -34 10
-19 0 -36 4 -38 9 -4 12 -200 20 -283 11z m260 -493 c11 -3 28 -6 38 -6 10 -1
15 -5 12 -11 -4 -6 5 -10 19 -10 14 0 26 -4 26 -10 0 -5 5 -10 12 -10 6 0 28
-18 49 -39 22 -22 42 -41 47 -43 15 -6 52 -61 46 -69 -3 -5 -1 -9 5 -9 9 0 24
-37 37 -91 13 -51 16 -171 5 -182 -6 -6 -11 -23 -11 -38 0 -15 -7 -32 -15 -39
-9 -7 -13 -15 -11 -17 4 -4 -4 -15 -51 -69 -24 -28 -108 -84 -125 -84 -8 0
-18 -4 -23 -9 -29 -29 -266 -30 -285 -2 -6 9 -38 23 -63 28 -24 4 -97 78 -97
98 0 8 -6 15 -12 15 -15 0 -38 45 -38 75 0 12 -5 26 -11 32 -15 15 -14 177 2
218 30 79 60 133 92 168 20 20 40 37 46 37 6 0 11 5 11 10 0 6 7 10 15 10 8 0
15 3 15 8 0 11 51 31 88 34 17 1 32 6 32 11 0 9 108 4 145 -6z"/>
<path d="M3480 8186 c-14 -6 -27 -13 -30 -17 -3 -3 -19 -12 -37 -19 -17 -8
-29 -18 -27 -22 3 -4 -2 -8 -10 -8 -8 0 -17 -8 -21 -19 -3 -10 -14 -29 -25
-41 -11 -12 -17 -27 -14 -31 3 -5 0 -9 -6 -9 -7 0 -10 -32 -9 -100 1 -55 6
-100 11 -100 5 0 7 -4 4 -9 -3 -5 1 -14 9 -21 8 -7 15 -18 15 -24 0 -16 65
-86 79 -86 6 0 11 -4 11 -10 0 -5 9 -10 20 -10 11 0 20 -4 20 -9 0 -9 41 -21
95 -28 35 -4 145 17 145 29 0 4 7 8 15 8 8 0 24 8 36 18 54 45 62 52 56 52 -4
0 3 11 15 25 47 54 64 168 38 261 -19 68 -121 164 -175 164 -16 0 -24 4 -20
11 9 14 -161 10 -195 -5z"/>
<path d="M10506 6755 c-3 -8 -14 -15 -24 -15 -13 0 -22 -13 -31 -47 -8 -27
-27 -74 -42 -105 -15 -32 -25 -58 -23 -58 2 0 -7 -22 -21 -50 -14 -27 -25 -56
-25 -64 0 -8 -13 -20 -29 -27 -20 -9 -27 -18 -23 -31 4 -15 15 -18 82 -18 61
0 79 3 84 15 4 10 -3 20 -19 27 -27 12 -30 24 -15 48 7 11 27 15 74 15 60 0
66 -2 71 -23 7 -27 -1 -42 -21 -42 -8 0 -14 -9 -14 -20 0 -19 7 -20 95 -20
108 0 118 9 65 62 -16 16 -30 37 -30 47 0 9 -4 21 -8 27 -4 5 -18 36 -31 69
-13 33 -32 79 -42 102 -10 24 -19 47 -19 52 0 13 -34 71 -41 71 -4 0 -9 -7
-13 -15z m8 -197 c9 -28 14 -53 12 -55 -8 -9 -66 8 -66 19 0 20 23 88 30 88 4
0 14 -23 24 -52z"/>
<path d="M4908 6747 c-16 -6 -28 -14 -28 -19 0 -4 -7 -8 -15 -8 -8 0 -15 -3
-15 -8 0 -4 -10 -18 -22 -32 -13 -14 -25 -34 -26 -45 -2 -11 -8 -22 -13 -25
-4 -3 -7 -35 -4 -71 4 -70 39 -159 62 -159 7 0 13 -4 13 -10 0 -5 7 -10 15
-10 8 0 15 -4 15 -10 0 -14 65 -23 123 -16 49 6 61 13 123 65 17 14 37 137 30
183 -4 22 -12 50 -18 62 -12 21 -14 27 -17 46 0 6 -8 10 -16 10 -8 0 -15 4
-15 9 0 16 -74 45 -120 46 -25 1 -57 -3 -72 -8z m116 -80 c22 -22 37 -73 37
-123 -1 -59 -3 -69 -20 -111 -12 -29 -18 -33 -53 -33 -45 0 -56 9 -82 64 -26
54 -17 180 15 206 23 20 82 19 103 -3z"/>
<path d="M4208 6733 c-26 -7 -22 -22 8 -29 24 -6 75 -71 80 -103 2 -8 6 -17
11 -20 20 -15 49 -90 52 -133 1 -38 -2 -50 -19 -60 -11 -7 -20 -21 -20 -30 0
-16 11 -18 89 -18 52 0 93 4 96 11 4 5 4 22 0 37 -4 15 -10 21 -12 15 -8 -22
-33 -14 -34 10 -1 12 -2 36 -3 52 -2 25 36 119 53 135 4 3 7 12 9 20 2 8 8 17
13 18 5 2 9 11 9 20 0 10 14 25 30 34 17 9 30 24 30 33 0 23 -145 22 -154 -1
-9 -23 -8 -24 14 -24 13 0 20 -7 20 -19 0 -11 -3 -21 -7 -23 -5 -1 -17 -21
-28 -43 -22 -43 -38 -48 -43 -15 -2 11 -8 20 -13 20 -5 0 -9 9 -9 20 0 11 -4
20 -10 20 -5 0 -10 9 -10 19 0 11 5 23 10 26 6 3 10 13 10 21 0 11 -16 14 -77
13 -43 -1 -86 -3 -95 -6z"/>
<path d="M5360 6722 c0 -11 9 -22 20 -25 18 -5 20 -14 21 -106 2 -114 0 -103
18 -156 14 -41 42 -75 61 -75 5 0 10 -4 10 -9 0 -16 102 -28 138 -16 87 30
111 81 112 240 0 105 1 111 23 120 12 6 22 17 22 25 0 12 -17 16 -82 18 -78 3
-83 2 -83 -18 0 -13 7 -20 19 -20 26 0 28 -9 25 -143 -3 -137 -12 -157 -74
-157 -37 0 -86 33 -75 51 4 5 2 9 -4 9 -5 0 -10 47 -10 113 -1 107 0 113 21
122 13 6 23 17 23 25 0 12 -18 16 -92 18 -86 3 -93 1 -93 -16z"/>
<path d="M5993 6734 c-21 -9 -15 -23 17 -39 l30 -16 0 -133 c0 -141 -4 -166
-25 -166 -13 0 -29 -29 -21 -38 8 -7 149 -13 174 -7 32 8 30 45 -3 45 -14 0
-25 6 -26 13 -5 86 -4 87 18 87 13 0 24 -8 28 -20 3 -11 11 -20 16 -20 6 0 8
-4 5 -9 -3 -5 1 -14 9 -21 8 -7 13 -16 10 -20 -3 -4 6 -19 20 -34 19 -20 33
-26 67 -26 48 0 62 7 66 33 2 12 -7 21 -27 28 -17 6 -30 14 -29 17 2 10 -36
72 -44 72 -13 0 5 33 35 65 25 26 28 36 25 76 -4 34 -13 54 -37 80 l-33 34
-131 2 c-73 1 -138 0 -144 -3z m237 -83 c27 -52 -13 -116 -69 -109 -24 3 -25
6 -24 63 1 33 2 61 2 63 1 1 19 2 41 2 29 0 42 -5 50 -19z"/>
<path d="M6927 6720 c-3 -13 0 -20 9 -20 8 0 14 -5 14 -11 0 -5 5 -7 11 -4 7
5 10 -33 8 -126 -3 -135 -14 -179 -44 -179 -22 0 -5 -39 19 -42 49 -7 136 4
136 17 0 7 6 16 13 18 7 3 4 6 -6 6 -10 1 -15 6 -12 11 4 6 3 10 -2 9 -26 -4
-30 6 -32 76 -1 45 2 75 8 75 6 0 20 -33 32 -72 34 -117 46 -138 81 -138 32 0
58 20 58 44 0 8 5 18 10 21 6 3 10 14 10 24 0 10 8 36 17 57 9 22 17 43 17 48
1 5 7 11 14 14 9 3 12 -16 12 -72 0 -65 -3 -78 -20 -88 -11 -7 -20 -21 -20
-30 0 -16 11 -18 89 -18 67 0 92 4 101 15 11 13 8 17 -19 26 -24 8 -31 17 -32
37 -5 207 -5 229 8 255 7 15 17 27 22 27 5 0 7 9 4 20 -5 19 -12 21 -71 18
-45 -2 -67 -8 -73 -18 -18 -35 -47 -110 -69 -177 -13 -40 -26 -73 -30 -73 -5
0 -33 64 -35 80 0 3 -3 10 -7 16 -4 6 -9 21 -12 35 -3 13 -14 49 -25 79 l-20
55 -79 3 c-73 3 -80 1 -85 -18z"/>
<path d="M7660 6720 c0 -12 9 -24 22 -29 21 -7 21 -14 22 -147 1 -135 -5 -164
-32 -164 -12 0 -23 -26 -15 -34 4 -3 51 -6 105 -6 88 0 98 2 98 18 0 11 -11
24 -25 30 -24 11 -25 15 -26 114 -1 57 -3 120 -4 141 -1 32 3 42 24 55 14 9
28 18 31 20 15 11 -37 22 -112 22 -82 0 -88 -1 -88 -20z"/>
<path d="M8070 6725 c-10 -12 -8 -17 17 -27 l30 -13 0 -140 c0 -138 -6 -165
-36 -165 -6 0 -11 -9 -11 -20 0 -19 7 -20 165 -20 l166 0 -3 78 c-3 69 -5 77
-23 77 -21 0 -59 -50 -50 -65 8 -12 -34 -22 -76 -18 l-34 3 0 134 c-1 130 0
134 22 144 13 6 23 18 23 29 0 16 -9 18 -89 18 -66 0 -92 -4 -101 -15z"/>
<path d="M8597 6726 c-7 -18 1 -26 25 -26 21 0 20 5 22 -165 1 -71 -2 -136 -7
-142 -5 -7 -18 -13 -29 -13 -16 0 -17 -3 -8 -20 10 -18 21 -20 103 -20 86 0
93 1 93 20 0 11 -6 20 -13 20 -7 0 -13 4 -13 10 0 6 -6 9 -12 8 -9 -2 -13 12
-14 45 -1 39 2 47 17 47 10 0 24 -10 30 -22 7 -13 19 -29 26 -37 8 -8 26 -31
39 -53 24 -38 25 -38 89 -38 59 0 65 2 65 21 0 13 -10 23 -27 30 -16 5 -39 28
-53 51 -14 22 -37 54 -53 70 -45 50 -45 72 2 117 22 21 37 41 34 45 -4 3 1 6
10 6 10 0 17 5 17 10 0 6 9 10 19 10 19 0 35 23 24 34 -9 9 -153 7 -154 -1 0
-5 -1 -25 -3 -45 -2 -27 -12 -46 -35 -68 -46 -42 -55 -39 -47 18 4 34 13 52
31 65 14 10 23 23 19 28 -3 5 -47 9 -99 9 -70 0 -94 -3 -98 -14z"/>
<path d="M9191 6719 c-8 -15 -9 -24 -2 -28 5 -4 11 -26 12 -49 3 -40 5 -43 28
-40 19 2 27 10 29 28 5 34 20 50 48 50 16 0 24 -6 25 -17 4 -48 -2 -266 -7
-274 -3 -5 -13 -9 -23 -9 -13 0 -18 -7 -17 -22 1 -19 8 -24 39 -26 20 -2 37
-8 37 -15 0 -6 6 -3 13 8 11 14 21 16 49 11 44 -8 68 1 68 24 0 13 -9 20 -27
22 l-28 3 -3 148 -3 147 35 0 c33 0 35 -2 38 -37 3 -33 7 -38 31 -41 23 -3 27
0 27 21 0 13 3 45 6 71 l7 46 -184 0 c-177 0 -185 -1 -198 -21z"/>
<path d="M9774 6725 c1 -8 10 -21 19 -27 13 -11 16 -36 18 -143 3 -142 -3
-175 -31 -175 -13 0 -17 -5 -13 -20 5 -19 14 -20 159 -20 l154 0 0 25 c0 14 5
25 10 25 18 0 10 57 -11 76 -24 22 -50 10 -59 -27 -5 -20 -12 -24 -42 -24 -20
0 -34 -4 -31 -8 3 -5 -3 -7 -13 -5 -15 2 -19 13 -21 50 -2 53 1 55 73 53 l51
-1 -1 36 -1 35 -60 0 -60 0 0 50 0 50 45 0 c41 0 45 -3 54 -30 6 -16 11 -31
12 -33 1 -2 13 0 28 4 24 6 26 10 26 65 l0 59 -154 0 c-131 0 -154 -2 -152
-15z"/>
</g>
</svg>
